<svg xmlns="http://www.w3.org/2000/svg" viewBox="0 0 1920 1080"><path fill="#4eaff9" d="M0 0h1920v1080H0z"/><path d="M0-1080c-5.158 94.345-31.15 357.52-30.948 566.07.204 208.55 17.742 440.108 32.168 685.23 14.426 245.12 62.15 567.144 54.387 785.503-7.763 218.359-91.696 324.118-100.964 524.65C-54.624 1681.986-7.559 2046.91 0 2160h1920v-3240Z" fill="url(&quot;#a&quot;)" transform="rotate(60 1077.122 458.817) scale(1.15)"/><path d="M320-1080c10.336 106.526 47.354 477.499 62.014 639.158 14.66 161.66 43.527 164.742 25.949 330.798s-117.703 455.64-131.415 665.54c-13.711 209.9 52.406 408.917 49.146 593.864-3.26 184.947-67.76 347.377-68.708 515.817-.95 168.44 52.512 412.352 63.014 494.823h1600v-3240Z" fill="url(&quot;#b&quot;)" transform="rotate(60 1077.122 458.817) scale(1.15)"/><path d="M640-1080c-6.42 82.447-20.633 355.235-38.518 494.68s-58.608 205.516-68.79 341.988c-10.184 136.473-26.198 290.5 7.692 476.848 33.891 186.349 180.203 478.03 195.651 641.243 15.449 163.212-101.57 211.552-102.961 338.031-1.391 126.48 93.462 262.98 94.616 420.847 1.154 157.869-73.075 438.636-87.69 526.363h1280v-3240Z" fill="url(&quot;#c&quot;)" transform="rotate(60 1077.122 458.817) scale(1.15)"/><path d="M960-1080c-12.8 83.822-59.808 382.664-76.803 502.935-16.994 120.27-54.077 117.08-25.165 218.691 28.912 101.612 188.66 238.255 198.638 390.98 9.98 152.725-139.56 382.978-138.763 525.37.796 142.392 142.716 192.792 143.545 328.983.829 136.191-135.656 330.949-138.571 488.164-2.916 157.215 114.89 324.313 121.077 455.126 6.187 130.813-69.965 274.793-83.958 329.751h960v-3240Z" fill="url(&quot;#d&quot;)" transform="rotate(60 1077.122 458.817) scale(1.15)"/><path d="M1280-1080c-9.798 87.84-46.26 391.361-58.788 527.045-12.528 135.683-41.768 161.402-16.383 287.057 25.386 125.654 167.94 286.143 168.696 466.87.756 180.729-158.813 454.376-164.156 617.496-5.344 163.12 107.29 204.285 132.098 361.226 24.807 156.94 26.988 417.034 16.744 580.418-10.245 163.384-65.176 333.24-78.211 399.888h640v-3240Z" fill="url(&quot;#e&quot;)" transform="rotate(60 1077.122 458.817) scale(1.15)"/><path d="M1600-1080c-5.43 106.58-22.167 420.975-32.585 639.483-10.418 218.508-52.033 450.73-29.923 671.566 22.109 220.837 137.342 424.274 162.578 653.454 25.237 229.181 5.521 509.048-11.157 721.631-16.678 212.583-74.094 461.555-88.913 553.866h320v-3240Z" fill="url(&quot;#f&quot;)" transform="rotate(60 1077.122 458.817) scale(1.15)"/><defs><linearGradient x1=".1" y1="0" x2="0" y2="1" id="a"><stop stop-color="#4eaff9" offset="0"/><stop stop-color="#4ecbf9" offset="0"/></linearGradient><linearGradient x1=".1" y1="0" x2="0" y2="1" id="b"><stop stop-color="#6ebefa" offset="0"/><stop stop-color="#6ed5fa" offset=".167"/></linearGradient><linearGradient x1=".1" y1="0" x2="0" y2="1" id="c"><stop stop-color="#8fccfb" offset="0"/><stop stop-color="#8fdefb" offset=".333"/></linearGradient><linearGradient x1=".1" y1="0" x2="0" y2="1" id="d"><stop stop-color="#afdbfc" offset="0"/><stop stop-color="#afe8fc" offset=".5"/></linearGradient><linearGradient x1=".1" y1="0" x2="0" y2="1" id="e"><stop stop-color="#d0eafd" offset="0"/><stop stop-color="#d0f1fd" offset=".667"/></linearGradient><linearGradient x1=".1" y1="0" x2="0" y2="1" id="f"><stop stop-color="#f0f8fe" offset="0"/><stop stop-color="#f0fafe" offset=".833"/></linearGradient></defs></svg>