<svg xmlns="http://www.w3.org/2000/svg" version="1.1" xmlns:xlink="http://www.w3.org/1999/xlink" xmlns:svgjs="http://svgjs.dev/svgjs" viewBox="0 0 1920 1080"><rect width="1920" height="1080" fill="#4eaff9"></rect><g transform="matrix(0.5750000000000001,0.9959292143521044,-0.9959292143521044,0.5750000000000001,935.9077503289938,-703.4067540969418)"><path d="M0,-1080C-5.157921916890767,-985.6548996339267,-31.15083832823253,-722.4791646985138,-30.9475315013446,-513.9293978035602C-30.744224674456667,-305.3796309086065,-13.205905203051122,-73.82342173775157,1.2198409613275913,171.29860136972218C15.645587125706305,416.42062447719593,63.36969502146269,738.4435945254103,55.60694548492768,956.8027408412822C47.84419594839267,1175.161887157154,-36.08883201039452,1280.9206027385005,-45.35665625788246,1481.4534792649536C-54.62448050537041,1681.9863557914066,-7.559442709647077,2046.9089132108256,0,2160L 1920 2160 L 1920 -1080 Z" fill="url(&quot;#SvgjsLinearGradient1304&quot;)"></path><path d="M320,-1080C330.3357088276463,-973.4736880420803,367.35375798943915,-602.5014596720455,382.0142529658777,-440.8421282524822C396.67474794231623,-279.18279683291894,425.54066615690135,-276.100352612817,407.9629698586313,-110.04401148262019C390.38527356036127,56.01232964757665,290.25964167306256,345.59526197835135,276.5480751762576,555.4959185286989C262.83650867945266,765.3965750790464,328.95396666981725,964.4130881771039,325.6935708778016,1149.3599278194654C322.433175085786,1334.306767461827,257.93462890379755,1496.7369443527787,256.98570042416395,1665.1769563828677C256.03677194453036,1833.6169684129568,309.49761673736066,2077.529492730478,320,2160L 1920 2160 L 1920 -1080 Z" fill="url(&quot;#SvgjsLinearGradient1305&quot;)"></path><path d="M640,-1080C633.5803150682196,-997.5533266244354,619.3667058518722,-724.7646611535745,601.4818904093177,-585.3199597466127C583.5970749667631,-445.8752583396508,542.8740272968881,-379.80447692607174,532.6911073446726,-243.3317915582288C522.508187392457,-106.85910619038583,506.49365803675784,47.16769069891109,540.384370696024,233.5161524604451C574.2750833552902,419.86461422197914,720.5871244195694,711.5466221906114,736.0353833002697,874.7589790109753C751.48364218097,1037.971335831339,634.4648049771423,1086.3105581502632,633.073923980226,1212.7902933826283C631.6830429833097,1339.2700286149934,726.5357513154762,1475.769105968937,727.6900973187719,1633.6373904051657C728.8444433220676,1791.5056748413942,654.6150162197953,2072.272898400861,640,2160L 1920 2160 L 1920 -1080 Z" fill="url(&quot;#SvgjsLinearGradient1306&quot;)"></path><path d="M960,-1080C947.1995618089682,-996.1775647911627,900.1920642313478,-697.3363956422372,883.1973708538087,-577.065388746976C866.2026774762696,-456.79438185171483,829.1196665515282,-459.9858502186048,858.0318397347655,-358.3739586284327C886.9440129180028,-256.7620670382606,1046.691299177564,-120.11906803331058,1056.6704099532324,32.60596079405656C1066.6495207289008,185.3309896214237,917.1096451791561,415.58402308669133,917.9065043887757,557.97621433577C918.7033635983953,700.3684055848487,1060.6225656450451,750.7679678235137,1061.4515652109499,886.9591082885283C1062.2805647768546,1023.150248753543,925.7960153532877,1217.9080462517818,922.8805017842034,1375.1230571258582C919.9649882151191,1532.3380679999345,1037.7719007604783,1699.4363497206302,1043.9584837964444,1830.2491735329872C1050.1450668324105,1961.0619973453443,973.9930806327408,2105.0415289221646,960,2160L 1920 2160 L 1920 -1080 Z" fill="url(&quot;#SvgjsLinearGradient1307&quot;)"></path><path d="M1280,-1080C1270.2020042217912,-992.1591937850814,1233.7404434811222,-688.6387551430402,1221.2120253307469,-552.9551627104884C1208.6836071803716,-417.2715702779366,1179.4440146065403,-391.5531163082094,1204.8294910977486,-265.89844540468937C1230.2149675889568,-140.24377450116936,1372.7683788503157,20.24514253751792,1373.524884277997,200.9728627106317C1374.2813897056783,381.7005828837455,1214.7115804879681,655.3477167763548,1209.3685236638364,818.4678756339933C1204.0254668397047,981.5880344916319,1316.6595420131857,1022.7531376083997,1341.4665433332066,1179.6938158564633C1366.2735446532274,1336.6344941045268,1368.4549554728296,1596.727581098452,1358.210531583962,1760.1119451223747C1347.9661076950943,1923.4963091462973,1293.035088597327,2093.351990853729,1280,2160L 1920 2160 L 1920 -1080 Z" fill="url(&quot;#SvgjsLinearGradient1308&quot;)"></path><path d="M1600,-1080C1594.5691027437665,-973.4195383401828,1577.8326783243326,-659.0254266329606,1567.4146164625993,-440.5172300410968C1556.996554600866,-222.00903344923304,1515.3823153134217,10.21240699872368,1537.4916288296001,231.04917955118262C1559.6009423457785,451.88595210364156,1674.8335940697968,655.3225618756636,1700.0704975596698,884.5034052736569C1725.3074010495427,1113.68424867165,1705.5914660287829,1393.551474151418,1688.913049768838,1606.134239939142C1672.234633508893,1818.7170057268659,1614.8188416281396,2067.689039989857,1600,2160L 1920 2160 L 1920 -1080 Z" fill="url(&quot;#SvgjsLinearGradient1309&quot;)"></path></g><defs><linearGradient x1="0.1" y1="0" x2="0" y2="1" id="SvgjsLinearGradient1304"><stop stop-color="#4eaff9" offset="0"></stop><stop stop-color="#4ecbf9" offset="0"></stop></linearGradient><linearGradient x1="0.1" y1="0" x2="0" y2="1" id="SvgjsLinearGradient1305"><stop stop-color="#6ebefa" offset="0"></stop><stop stop-color="#6ed5fa" offset="0.16666666666666666"></stop></linearGradient><linearGradient x1="0.1" y1="0" x2="0" y2="1" id="SvgjsLinearGradient1306"><stop stop-color="#8fccfb" offset="0"></stop><stop stop-color="#8fdefb" offset="0.3333333333333333"></stop></linearGradient><linearGradient x1="0.1" y1="0" x2="0" y2="1" id="SvgjsLinearGradient1307"><stop stop-color="#afdbfc" offset="0"></stop><stop stop-color="#afe8fc" offset="0.5"></stop></linearGradient><linearGradient x1="0.1" y1="0" x2="0" y2="1" id="SvgjsLinearGradient1308"><stop stop-color="#d0eafd" offset="0"></stop><stop stop-color="#d0f1fd" offset="0.6666666666666666"></stop></linearGradient><linearGradient x1="0.1" y1="0" x2="0" y2="1" id="SvgjsLinearGradient1309"><stop stop-color="#f0f8fe" offset="0"></stop><stop stop-color="#f0fafe" offset="0.8333333333333334"></stop></linearGradient></defs></svg>